<svg width="14" height="18" viewBox="0 0 14 18" fill="none" xmlns="http://www.w3.org/2000/svg">
<path d="M7.72454 1.5664C8.85288 0.00759945 10.4215 0 10.4215 0C10.4215 0 10.6549 1.46554 9.53393 2.87732C8.33703 4.3848 6.9766 4.13812 6.9766 4.13812C6.9766 4.13812 6.72115 2.95255 7.72454 1.5664ZM7.12011 5.16473C7.70059 5.16473 8.77792 4.32838 10.1802 4.32838C12.594 4.32838 13.5436 6.12868 13.5436 6.12868C13.5436 6.12868 11.6864 7.12397 11.6864 9.539C11.6864 12.2634 14 13.2023 14 13.2023C14 13.2023 12.3827 17.9736 10.1982 17.9736C9.19485 17.9736 8.41481 17.2649 7.35765 17.2649C6.28032 17.2649 5.21122 18 4.51491 18C2.52012 18.0001 0 13.474 0 9.83576C0 6.25627 2.13311 4.37853 4.13389 4.37853C5.43457 4.37853 6.44391 5.16473 7.12011 5.16473Z" fill="#BEBEBE"/>
</svg>
